<svg width="52" height="52" viewBox="0 0 52 52" fill="none" xmlns="http://www.w3.org/2000/svg">
<rect width="52" height="52" rx="4" fill="white" fill-opacity="0.2"/>
<path d="M38 35C39.65 35 40.985 33.65 40.985 32L41 15.5C41 13.85 39.65 12.5 38 12.5H14C12.35 12.5 11 13.85 11 15.5V32C11 33.65 12.35 35 14 35H8C8 36.65 9.35 38 11 38H41C42.65 38 44 36.65 44 35H38ZM14 15.5H38V32H14V15.5ZM26 36.5C25.175 36.5 24.5 35.825 24.5 35C24.5 34.175 25.175 33.5 26 33.5C26.825 33.5 27.5 34.175 27.5 35C27.5 35.825 26.825 36.5 26 36.5Z" fill="white"/>
</svg>
